<?xml version="1.0" encoding="UTF-8"?>
<svg id="_レイヤー_2" data-name="レイヤー 2" xmlns="http://www.w3.org/2000/svg" viewBox="0 0 392.34 114.81">
  <defs>
    <style>
      .cls-1, .cls-2 {
        fill: #fff;
      }

      .cls-3, .cls-4 {
        fill: none;
      }

      .cls-5, .cls-4, .cls-6, .cls-2 {
        stroke: #fff;
        stroke-miterlimit: 10;
      }

      .cls-5, .cls-6, .cls-7 {
        fill: #425377;
      }

      .cls-8 {
        fill: #e6e6e5;
      }

      .cls-4, .cls-6, .cls-2 {
        stroke-width: 1.5px;
      }

      .cls-9 {
        fill: #fad856;
      }
    </style>
  </defs>
  <g id="_レイヤー_4" data-name="レイヤー 4">
    <g>
      <path class="cls-7" d="M101.6,67.3c-4.86-22.37-13.61-40.9-33.91-40.9-16.84,0-25.9,12.76-31.27,29.89,2.29,5.77,3.49,11.59,4.37,17.58.15,1.28.51,3.08.5,4.34,0,2.26-.85,4.4-2.18,6.27,10.53,9.89,24.69,15.96,40.27,15.96,7.25,0,14.18-1.33,20.59-3.72.36-.49.72-.99,1.06-1.52,4.14-6.58,2.34-19.71.56-27.9Z"/>
      <path class="cls-6" d="M67.66,58.84c-22.87,0-21.68-8.31-21.68-11.6,0-3.99,3.11-9.1,11.02-9.1,7.74,0,9.55,3.19,10.67,3.19,1.12,0,2.92-3.19,10.67-3.19s11.02,5.11,11.02,9.1c0,3.3,1.19,11.6-21.68,11.6Z"/>
      <polygon class="cls-9" points="67.66 56.36 65.89 53.35 64.16 50.31 67.66 50.29 71.15 50.31 69.42 53.35 67.66 56.36"/>
      <path class="cls-2" d="M67.66,82.22l16.02-24.98c-10.62,2.27-21.29,2.27-31.99,0l15.97,24.98Z"/>
      <polygon class="cls-5" points="67.65 59.39 62.9 62.84 65.41 68.43 69.89 68.43 72.4 62.84 67.65 59.39"/>
      <polygon class="cls-5" points="67.65 82.12 62.42 74.01 65.41 68.43 69.89 68.43 72.88 74.01 67.65 82.12"/>
      <polyline class="cls-4" points="85.09 65.09 90.37 60.35 84.03 56.72"/>
      <polyline class="cls-4" points="76.84 75.32 88.33 66.73 82.71 63.41"/>
      <polyline class="cls-4" points="50.2 65.09 44.93 60.35 51.27 56.72"/>
      <polyline class="cls-4" points="58.46 75.32 46.97 66.73 52.59 63.41"/>
      <g>
        <path class="cls-7" d="M109.61,53.15c-3.32,0-5.78-.92-7.3-2.75-2.23-2.68-1.6-6.29-1.57-6.44l.06-.31h17.64l.06.31c.03.15.66,3.76-1.57,6.44-1.52,1.83-3.98,2.75-7.3,2.75Z"/>
        <path class="cls-1" d="M118.12,44.02s1.61,8.75-8.51,8.75-8.51-8.75-8.51-8.75h17.01M118.75,43.27h-18.26l-.11.61c-.03.16-.69,3.94,1.66,6.75,1.59,1.91,4.15,2.89,7.59,2.89s5.99-.97,7.59-2.89c2.35-2.82,1.68-6.59,1.66-6.75l-.11-.61h0Z"/>
      </g>
      <g>
        <path class="cls-7" d="M109.64,56.01c-3.75-.08-7.74-.37-11.55-1.96l-.12-.05-.12-.16c-.06-.11-.08-.25-.04-.37l.08-.26.34-.06c3.82.22,7.67.33,11.45.33s7.6-.11,11.35-.32h0c.27,0,.46.2.47.44,0,.23-.14.42-.34.48-3.76,1.58-7.75,1.87-11.5,1.95h-.02Z"/>
        <path class="cls-1" d="M98.24,53.52s0,0,0,0c3.81.22,7.63.33,11.45.33s7.58-.11,11.36-.33c0,0,0,0,0,0,.04,0,.07.04.07.08,0,.05-.03.09-.06.1-3.71,1.55-7.56,1.86-11.42,1.94-3.86-.08-7.7-.39-11.42-1.94-.04-.01-.08-.06-.06-.12,0-.04.04-.06.07-.06M98.24,52.77c-.37,0-.7.25-.79.62-.06.19-.03.43.08.64.1.18.26.31.44.38,3.87,1.61,7.89,1.9,11.67,1.98,3.81-.08,7.84-.37,11.7-1.98.33-.12.55-.44.55-.81-.02-.48-.38-.83-.82-.83h-.07c-3.72.22-7.53.33-11.3.33s-7.61-.11-11.41-.32h-.02s-.03,0-.03,0h0Z"/>
      </g>
      <g>
        <path class="cls-7" d="M119.27,51.13c-.89,0-1.68-.16-2.12-.44l-.32-.2,1.15-1.84.31.17c.06.03.41.12.97.12.41,0,1.17-.05,1.72-.38.34-.2.48-.44.48-.83s-.12-.46-.16-.5c-.22-.17-.74-.26-1.38-.26-.47,0-.9.05-1.07.1l-.52.15.17-2.04.25-.07c.74-.22,1.35-.26,1.73-.26.86,0,1.58.21,2.14.64.47.36,1.04,1.04,1.04,2.25s-.57,2.16-1.65,2.76c-.98.54-2.14.62-2.74.62Z"/>
        <path class="cls-1" d="M120.47,45.23c.63,0,1.34.13,1.92.56.41.3.89.89.89,1.95s-.5,1.91-1.46,2.43c-.74.41-1.7.58-2.56.58s-1.55-.15-1.92-.38l.76-1.22c.16.09.61.17,1.16.17.63,0,1.37-.11,1.91-.43.45-.27.66-.63.66-1.15s-.18-.7-.31-.8c-.34-.26-1-.34-1.61-.34-.5,0-.97.06-1.17.12l.1-1.24c.14-.04.82-.25,1.62-.25M120.47,44.48c-.41,0-1.05.05-1.83.27l-.49.15-.05.52-.1,1.24-.09,1.08,1.04-.3c.1-.03.47-.09.97-.09.71,0,1.06.12,1.15.19,0,0,.02.07.02.2,0,.25-.07.37-.3.5-.35.2-.9.32-1.53.32-.44,0-.75-.06-.83-.09l-.62-.34-.34.62-.76,1.22-.4.64.64.4c.51.32,1.35.5,2.32.5.64,0,1.87-.09,2.92-.67,1.19-.66,1.84-1.76,1.84-3.09,0-1.07-.42-1.98-1.19-2.55-.63-.47-1.43-.71-2.37-.71h0Z"/>
      </g>
      <g>
        <path class="cls-7" d="M110.77,43.46c-.28,0-.57-.02-.87-.05l-.18-.02-.38-.4-.02-.17c-.23-2.51.85-5.06,2.8-6.65,1.32-1.15,2.9-1.95,4.55-2.31.51-.11,1.14-.22,1.88-.22h.4s.42.44.42.44v.2c0,.83-.15,1.51-.29,2.07-1,3.72-3.73,6.46-6.95,7-.48.08-.93.12-1.37.12Z"/>
        <path class="cls-1" d="M118.55,34.13c.06,0,.12,0,.19,0l.14.14c0,.74-.12,1.36-.27,1.95-.85,3.15-3.21,6.07-6.55,6.62-.43.07-.85.12-1.28.12-.26,0-.53-.02-.81-.05l-.14-.14c-.21-2.37.82-4.76,2.62-6.22,1.21-1.05,2.71-1.85,4.34-2.21.54-.12,1.11-.21,1.77-.21M118.55,33.13h0c-.79,0-1.44.12-1.98.24-1.73.38-3.39,1.22-4.79,2.43-2.06,1.67-3.2,4.39-2.96,7.06l.03.35.25.25.14.14.25.25.35.04c.32.04.62.06.94.06.46,0,.94-.04,1.45-.13,3.41-.57,6.3-3.45,7.35-7.35.15-.61.3-1.33.31-2.21v-.41s-.28-.29-.28-.29l-.14-.14-.28-.29h-.41c-.07-.01-.14-.01-.22-.01h0Z"/>
      </g>
      <path class="cls-6" d="M103.56,79.21c-1.19-8.59-2.59-16.51-4.61-22.44h13.33s-8.72,22.44-8.72,22.44Z"/>
      <circle class="cls-1" cx="58.2" cy="48.28" r="3.2"/>
      <circle class="cls-1" cx="77.11" cy="48.28" r="3.2"/>
      <path class="cls-6" d="M36.37,56.21c2.3,5.79,3.51,11.62,4.39,17.62.15,1.28.51,3.08.5,4.34.01,4.8-3.82,9.05-7.9,11.41-.23.12-.6.33-.84.44-.21-.16-.52-.44-.72-.62-3.44-3.22-6.23-8.22-5.14-12.89.28-1.23,1.03-2.92,1.47-4.11,2.21-5.65,4.69-11.07,8.24-16.19h0Z"/>
      <path class="cls-9" d="M79.36,100.4c-15.59,0-29.75-6.07-40.28-15.96-1.49,2.1-3.57,3.88-5.72,5.13-.23.12-.6.33-.84.44-.21-.16-.52-.44-.72-.62-3.44-3.22-6.23-8.22-5.14-12.89.28-1.23,1.03-2.92,1.47-4.11.14-.37.29-.74.44-1.1-5.13-8.73-8.08-18.9-8.08-29.76,0-15.98,6.37-30.46,16.7-41.07C15.81,9.29.75,30.34.75,54.91c0,32.51,26.36,58.87,58.87,58.87,16.54,0,31.48-6.82,42.17-17.8-6.91,2.85-14.48,4.43-22.42,4.43Z"/>
      <g>
        <path class="cls-3" d="M100.37,94.77c2.95-4.06,1.75-21.39.46-27.35-5.97-27.5-16.51-40.31-33.18-40.31-14.3,0-24.27,9.52-30.47,29.11,2.48,6.33,3.61,12.67,4.32,17.5.05.4.11.83.18,1.28.16,1.05.33,2.23.33,3.17,0,2.08-.65,4.15-1.94,6.16,10.76,9.88,24.68,15.33,39.29,15.33,6.93,0,18.24-1.07,21.01-4.89Z"/>
        <path class="cls-3" d="M39.19,85.57c-1.43,1.8-3.33,3.44-5.45,4.67l-.26.14c-.22.12-.47.25-.65.33-.25.11-.55.08-.77-.09-.18-.14-.43-.36-.63-.54l-.12-.11c-3.4-3.18-6.59-8.41-5.37-13.63.21-.93.66-2.08,1.06-3.09.16-.39.3-.77.43-1.11l.31-.79c-5.23-9.04-8-19.34-8-29.82,0-14.4,5.1-28.08,14.44-38.9C14.21,12.34,1.5,32.48,1.5,54.91c0,32.04,26.07,58.12,58.12,58.12,14.6,0,28.33-5.32,39.04-15.07-6.19,2.12-12.67,3.2-19.3,3.2-14.93,0-29.16-5.53-40.17-15.59Z"/>
        <path class="cls-1" d="M102.3,67.38c-3.87-17.81-11.67-41.49-34.64-41.49-15.1,0-25.57,9.95-31.99,30.41l-.08.25.1.25c2.49,6.27,3.62,12.6,4.33,17.39.05.4.11.84.18,1.31.15.99.32,2.12.32,2.94,0,1.95-.68,3.92-2.04,5.84v.02s0,0,0-.01c-1.34,1.9-3.29,3.64-5.46,4.9l-.25.13s-.09.05-.14.08c-.07-.06-.14-.12-.2-.18l-.11-.1c-2.94-2.75-5.99-7.58-4.92-12.18.19-.82.62-1.91,1-2.88.16-.41.31-.79.44-1.13l.44-1.1c.09-.22.07-.46-.05-.66-5.22-8.89-7.98-19.04-7.98-29.38,0-15.23,5.85-29.63,16.48-40.54.25-.25.28-.65.08-.94-.2-.3-.58-.41-.91-.27C14.49,9.3,0,30.94,0,55.19c0,32.87,26.74,59.62,59.62,59.62,4.41,0,17.22-1.16,22.97-3.91,8.94-4.27,18.75-10.88,20.7-16.99,2.33-7.27-.48-24.17-.99-26.53ZM59.62,113.31C27.57,113.31,1.5,87.23,1.5,55.19,1.5,32.76,14.21,12.62,34.19,2.92c-9.34,10.82-14.44,24.49-14.44,38.9,0,10.47,2.76,20.77,8,29.82l-.31.79c-.12.34-.27.71-.43,1.11-.4,1.02-.85,2.17-1.06,3.09-1.21,5.21,1.97,10.45,5.37,13.63l.12.11c.2.18.45.4.63.54.22.17.52.2.77.09.18-.08.43-.22.65-.33l.26-.14c2.11-1.23,4.02-2.86,5.45-4.67,11.02,10.06,25.25,15.59,40.17,15.59,6.63,0,13.1-1.07,19.3-3.2-10.71,9.74-24.44,15.07-39.04,15.07ZM79.36,99.93c-14.61,0-28.53-5.44-39.29-15.33,1.29-2.01,1.95-4.08,1.94-6.16,0-.93-.18-2.12-.33-3.17-.07-.45-.13-.88-.18-1.28-.71-4.83-1.85-11.17-4.32-17.5,6.2-19.59,16.17-29.11,30.47-29.11,16.66,0,27.2,12.81,33.18,40.31,1.78,7.9,1.94,13,1.84,19.58-.06,4.21-.75,6.73-3.24,8.45-1.73,1.19-2.34,1.2-4.67,1.94-3.68,1.17-10.29,2.03-15.4,2.27Z"/>
      </g>
    </g>
    <g>
      <path class="cls-8" d="M144.41,80.05c-3.17.02-5.73-.76-7.69-2.33-1.95-1.57-3.37-3.61-4.26-6.1-.89-2.5-1.34-5.11-1.35-7.83-.02-3.53.49-7.08,1.54-10.66,1.05-3.58,2.49-6.99,4.33-10.24,1.83-3.25,3.93-6.14,6.28-8.68s4.83-4.54,7.43-6.01c2.6-1.47,5.18-2.21,7.73-2.22,1.83-.01,3.32.42,4.46,1.28,1.14.86,1.72,2.35,1.74,4.44,0,1.3-.21,2.76-.64,4.39-.44,1.63-1.03,3.2-1.78,4.7-.75,1.5-1.58,2.75-2.49,3.73-.91.99-1.83,1.49-2.77,1.49-.36,0-.73-.11-1.11-.33-.38-.22-.71-.62-.98-1.2.67-.76,1.41-1.72,2.23-2.86.82-1.14,1.6-2.35,2.36-3.63.75-1.28,1.36-2.53,1.82-3.76s.69-2.32.68-3.25c0-.89-.27-1.62-.78-2.17-.52-.56-1.36-.83-2.52-.82-1.92.01-3.92.81-5.98,2.38-2.07,1.58-4.06,3.68-5.99,6.3-1.93,2.62-3.66,5.55-5.21,8.78-1.54,3.22-2.76,6.51-3.66,9.87-.9,3.36-1.33,6.55-1.31,9.59.01,2.19.34,4.28.98,6.26.64,1.98,1.66,3.58,3.08,4.8,1.41,1.22,3.24,1.82,5.47,1.81,2.37-.01,4.72-.7,7.06-2.05,2.34-1.35,4.48-3.13,6.43-5.33,1.95-2.2,3.5-4.58,4.65-7.13l.94.66c-1.46,2.91-3.23,5.59-5.31,8.04-2.08,2.45-4.42,4.4-7,5.87-2.58,1.47-5.37,2.21-8.36,2.23Z"/>
      <path class="cls-8" d="M166.03,77.24c-1.38,0-2.56-.44-3.53-1.35-.97-.91-1.46-2.3-1.47-4.18,0-1.61.34-3.34,1.04-5.2.7-1.86,1.67-3.69,2.91-5.51,1.24-1.82,2.65-3.48,4.22-4.98,1.58-1.51,3.24-2.71,5-3.61,1.76-.9,3.51-1.36,5.25-1.37,1.74-.01,3.2.44,4.36,1.35,1.17.91,1.76,2.12,1.76,3.64,0,1.12-.29,1.88-.89,2.28-.6.41-1.39.61-2.37.62.09-.36.16-.75.23-1.17.06-.43.1-.82.09-1.17,0-1.03-.26-1.91-.75-2.64-.5-.73-1.35-1.1-2.55-1.09-1.25,0-2.52.45-3.81,1.33-1.29.88-2.53,2.05-3.73,3.51-1.2,1.46-2.26,3.04-3.19,4.74-.93,1.7-1.65,3.38-2.18,5.04-.53,1.66-.79,3.13-.78,4.43.01,1.74.62,2.61,1.82,2.6,1.03,0,2.14-.49,3.34-1.46s2.43-2.2,3.7-3.71c1.26-1.5,2.47-3.06,3.62-4.68,1.15-1.62,2.17-3.1,3.06-4.44.18-.27.29-.4.33-.4.27.04.61.13,1.04.26.42.13.79.31,1.11.53.31.22.47.51.47.87,0,.4-.2.95-.59,1.65-.4.7-.84,1.49-1.33,2.39-.49.9-.93,1.8-1.32,2.72-.4.92-.59,1.78-.59,2.58,0,.67.19,1.33.55,1.97.36.65.94.97,1.75.96,1.21,0,2.79-.9,4.74-2.68,1.95-1.78,3.93-4.43,5.91-7.98l.67.67c-.92,2.42-2.12,4.55-3.58,6.39-1.46,1.84-3.03,3.28-4.7,4.32-1.67,1.04-3.31,1.56-4.91,1.57-1.65,0-2.87-.47-3.66-1.45-.79-.98-1.19-2.05-1.19-3.21,0-.27.02-.57.06-.91.04-.34.08-.68.13-1.04-1.9,2.6-3.65,4.56-5.22,5.86-1.58,1.3-3.19,1.96-4.85,1.97Z"/>
      <path class="cls-8" d="M197.58,75.91c-1.92.01-3.3-.64-4.13-1.95-.83-1.31-1.26-2.95-1.27-4.92-.01-2.14.37-4.69,1.16-7.65s1.83-6.06,3.13-9.33c1.3-3.27,2.72-6.46,4.26-9.57,1.54-3.11,3.09-5.95,4.64-8.5s2.98-4.6,4.28-6.12c1.31-1.53,2.34-2.29,3.1-2.3.49,0,.9.27,1.21.83.32.56.56,1.23.75,2.01.18.78.28,1.48.28,2.11,0,1.21-.28,2.78-.88,4.73-.59,1.95-1.43,4.12-2.51,6.51-1.08,2.4-2.36,4.82-3.84,7.26s-3.1,4.79-4.85,7.03c-1.75,2.25-3.6,4.18-5.56,5.8-.26,1.21-.47,2.38-.61,3.52-.15,1.14-.22,2.22-.21,3.25.01,1.74.26,3.04.76,3.88.5.85,1.24,1.27,2.22,1.26,1.21,0,2.4-.55,3.57-1.63,1.18-1.08,2.29-2.44,3.33-4.07,1.04-1.64,1.93-3.33,2.68-5.07l1.01.53c-1.76,3.81-3.69,6.82-5.77,9.05-2.09,2.22-4.33,3.34-6.75,3.36ZM197.95,59.56c1.55-1.57,3.06-3.38,4.52-5.42,1.46-2.04,2.82-4.16,4.08-6.36,1.26-2.19,2.37-4.32,3.34-6.38s1.72-3.91,2.25-5.54c.53-1.63.79-2.9.78-3.79,0-.45-.06-.74-.17-.87-.11-.13-.21-.2-.3-.2-.36,0-.97.58-1.83,1.72-.86,1.14-1.87,2.68-3.02,4.61-1.15,1.93-2.32,4.12-3.51,6.59s-2.33,5.04-3.4,7.72c-1.08,2.69-1.99,5.33-2.73,7.92Z"/>
      <path class="cls-8" d="M241.6,75.71c-1.56,0-2.71-.46-3.42-1.42-.72-.96-1.08-2.1-1.09-3.45,0-1.12.15-2.23.48-3.35.33-1.12.66-2.21.98-3.29.33-1.07.49-2.03.49-2.88,0-.89-.21-1.52-.62-1.87-.4-.35-.85-.53-1.34-.53-1.12,0-2.33.88-3.64,2.64-1.31,1.75-3,4.22-5.08,7.4-.71,1.08-1.3,2.16-1.79,3.26-.49,1.1-.95,2.09-1.39,2.99-.36,0-.8-.04-1.34-.13-.54-.09-1.02-.23-1.44-.43-.43-.2-.64-.45-.64-.77,0-.31.2-1.06.62-2.25.42-1.19.9-2.57,1.45-4.16.55-1.59,1.03-3.2,1.45-4.83.41-1.63.62-3.03.61-4.19,0-.76-.13-1.37-.38-1.84-.25-.47-.69-.7-1.31-.7-.98,0-2.16.61-3.54,1.8-1.38,1.19-2.8,2.75-4.26,4.68-1.46,1.93-2.85,4.05-4.15,6.36-1.3,2.31-2.35,4.6-3.14,6.89-.4,0-.89-.06-1.48-.19-.58-.13-1.08-.31-1.51-.53-.42-.22-.64-.44-.64-.67,0-.27.23-1.06.69-2.38.46-1.32.99-2.91,1.58-4.77.59-1.86,1.12-3.75,1.57-5.67.46-1.92.68-3.62.67-5.1.27-.31.69-.63,1.27-.95.58-.32,1.18-.48,1.81-.48.62,0,1.08.15,1.38.46.29.31.44.73.44,1.27,0,.58-.16,1.58-.48,2.98-.33,1.41-.73,2.96-1.21,4.66.88-1.43,1.89-2.9,3.02-4.41,1.13-1.5,2.32-2.88,3.56-4.14,1.24-1.26,2.5-2.28,3.77-3.07,1.27-.79,2.51-1.19,3.71-1.2,1.38,0,2.34.49,2.86,1.49s.78,2.2.79,3.58c0,1.12-.11,2.29-.35,3.52-.24,1.23-.51,2.37-.82,3.42-.31,1.05-.59,1.89-.86,2.52.93-1.7,1.96-3.35,3.09-4.94,1.13-1.59,2.36-2.9,3.69-3.91,1.33-1.01,2.76-1.53,4.28-1.53,1.43,0,2.42.41,2.99,1.25.56.85.85,1.85.86,3.01,0,1.16-.19,2.44-.58,3.82-.39,1.39-.8,2.73-1.22,4.03-.42,1.3-.62,2.42-.62,3.35,0,.58.15,1.1.45,1.57.29.47.82.7,1.58.69,1.25,0,2.42-.58,3.51-1.73,1.09-1.15,2.09-2.54,3.02-4.17.93-1.64,1.72-3.21,2.38-4.74l.81.93c-.7,1.88-1.61,3.75-2.71,5.61-1.11,1.86-2.4,3.4-3.89,4.61-1.49,1.22-3.13,1.83-4.91,1.84Z"/>
      <path class="cls-8" d="M255.67,75.69c-1.7.01-3.02-.53-3.96-1.62-.94-1.09-1.42-2.48-1.43-4.18,0-1.43.28-3.03.88-4.8.59-1.77,1.42-3.54,2.48-5.31,1.06-1.77,2.27-3.4,3.62-4.88,1.35-1.48,2.81-2.69,4.37-3.61,1.56-.92,3.14-1.39,4.75-1.4.85,0,1.5.12,1.94.39.45.26.76.6.94,1,.09-.04.17-.07.23-.07.07,0,.14,0,.23,0,.85,0,1.44.33,1.78.99s.51,1.2.51,1.61c0,.54-.22,1.24-.66,2.11-.44.87-.87,1.85-1.29,2.92-.42,1.08-.62,2.22-.62,3.42,0,1.25.33,2.18.96,2.78.63.6,1.63.89,3.02.89.89,0,1.84-.45,2.84-1.32,1-.88,1.99-2,2.96-3.37s1.85-2.86,2.62-4.47c.77-1.61,1.35-3.16,1.75-4.63-.45-.44-.68-.98-.68-1.6,0-.89.17-1.69.52-2.38.35-.69.76-1.23,1.23-1.61.47-.38.81-.58,1.04-.58.49,0,.77.21.84.63.07.42.1.75.11.97,0,.22-.12.66-.36,1.31-.24.65-.36,1.04-.36,1.17,0,.63.35,1.19,1.05,1.7.69.51,1.49,1.09,2.39,1.73.9.64,1.69,1.42,2.39,2.33.7.91,1.05,2.08,1.06,3.51,0,1.34-.26,2.71-.81,4.09-.55,1.39-1.1,2.71-1.65,3.96-.55,1.25-.82,2.35-.82,3.29,0,.8.21,1.34.61,1.6.4.27.87.4,1.41.39,1.07,0,2.17-.35,3.31-1.02,1.14-.68,2.24-1.53,3.3-2.57s2.02-2.12,2.86-3.27c.84-1.14,1.46-2.21,1.86-3.19l.87.67c-.84,1.88-1.99,3.73-3.45,5.55-1.46,1.82-3.09,3.31-4.9,4.49-1.8,1.17-3.66,1.76-5.58,1.78-1.52,0-2.71-.39-3.59-1.18-.88-.8-1.32-1.85-1.33-3.14,0-1.34.29-2.75.91-4.23.62-1.48,1.22-2.94,1.82-4.4.59-1.46.89-2.76.88-3.92,0-1.43-.43-2.49-1.26-3.17-.83-.69-1.67-1.32-2.52-1.9-.48,1.52-1.13,3.12-1.95,4.8-.82,1.68-1.73,3.25-2.75,4.71-1.02,1.46-2.12,2.64-3.29,3.54-1.18.9-2.42,1.35-3.71,1.36-1.25,0-2.38-.24-3.39-.75-1.01-.51-1.78-1.27-2.33-2.3-1.37,3.27-3.06,5.95-5.08,8.04-2.02,2.09-4.21,3.14-6.58,3.16ZM257.13,72.8c1.03,0,2.12-.47,3.27-1.39,1.15-.92,2.29-2.17,3.39-3.74,1.11-1.57,2.06-3.32,2.85-5.24-.28-1.07-.42-2.34-.43-3.82,0-1.03.04-1.92.15-2.68.11-.76.26-1.43.46-2.01.2-.58.41-1.05.63-1.41-1.52,0-2.93.43-4.25,1.27-1.31.83-2.5,1.92-3.57,3.24-1.06,1.32-1.97,2.75-2.72,4.27-.75,1.52-1.33,3-1.75,4.43s-.62,2.66-.61,3.69c0,1.03.23,1.85.69,2.48.45.62,1.08.93,1.88.93Z"/>
      <path class="cls-8" d="M306.39,74.98c-1.74.01-3.04-.53-3.9-1.62-.86-1.09-1.29-2.42-1.3-3.98,0-1.03.18-2.32.55-3.89.37-1.56.86-3.21,1.48-4.93.61-1.72,1.33-3.35,2.15-4.87.82-1.52,1.69-2.77,2.62-3.73.93-.97,1.84-1.45,2.74-1.46.4,0,.75.12,1.04.36.29.24.44.61.44,1.1,0,.54-.34,1.41-1.02,2.62-.69,1.21-1.49,2.6-2.42,4.17s-1.73,3.22-2.42,4.94c-.68,1.72-1.02,3.37-1.01,4.93,0,1.61.28,2.68.82,3.21.54.53,1.37.8,2.48.79,1.52,0,3.13-.78,4.84-2.31,1.71-1.53,3.51-4.2,5.41-8.01l.61.67c-1.27,3.85-3.12,6.81-5.54,8.88-2.42,2.07-4.95,3.11-7.59,3.13ZM314.24,44.24c-.71,0-1.35-.17-1.91-.52-.56-.35-.84-.91-.85-1.67,0-.94.54-1.76,1.63-2.46,1.09-.7,2.17-1.05,3.24-1.06.67,0,1.21.15,1.61.46.4.31.61.84.61,1.6,0,.85-.45,1.67-1.36,2.45-.91.79-1.9,1.18-2.97,1.19Z"/>
      <path class="cls-8" d="M322.73,75.14c-1.52,0-2.74-.66-3.67-2.02-.92-1.36-1.39-2.93-1.4-4.71,0-1.29.2-2.79.61-4.49.41-1.7.93-3.38,1.54-5.04.62-1.66,1.25-3.02,1.92-4.1.66-1.08,1.24-1.62,1.73-1.62.22,0,.6.12,1.14.36.54.24.98.56,1.35.96-.49.76-1.08,1.93-1.79,3.5-.71,1.57-1.32,3.25-1.84,5.04-.53,1.79-.78,3.45-.77,4.96,0,.36.05.9.14,1.64.09.74.32,1.39.68,1.97.36.58.9.87,1.61.86.85,0,1.72-.45,2.61-1.32.89-.88,1.78-2.01,2.69-3.4.91-1.39,1.78-2.89,2.62-4.5.84-1.61,1.62-3.16,2.35-4.64.73-1.48,1.33-2.71,1.82-3.7.27.04.66.13,1.17.26.51.13.98.31,1.41.53.42.22.64.53.64.93,0,.18-.22.77-.66,1.78-.44,1.01-.96,2.24-1.55,3.7-.59,1.46-1.11,2.92-1.55,4.4-.44,1.48-.65,2.77-.65,3.89,0,.8.18,1.45.52,1.94.34.49.91.73,1.71.73.94,0,2.08-.44,3.41-1.29,1.33-.86,2.69-2.1,4.06-3.74,1.37-1.64,2.59-3.6,3.65-5.88l.88.6c-.92,2.42-2.14,4.56-3.65,6.42-1.51,1.86-3.11,3.31-4.8,4.35-1.69,1.04-3.34,1.56-4.95,1.57-1.16,0-2.09-.21-2.79-.65-.7-.44-1.19-1.04-1.49-1.8-.3-.76-.45-1.58-.45-2.48,0-.54.04-1.08.12-1.64.09-.56.19-1.13.33-1.71-.79,1.48-1.66,2.86-2.59,4.14-.93,1.28-1.91,2.3-2.93,3.07-1.02.77-2.09,1.15-3.21,1.16Z"/>
      <path class="cls-8" d="M380.82,74.86c-1.56,0-2.71-.46-3.43-1.42-.72-.96-1.08-2.1-1.09-3.44,0-1.12.15-2.23.48-3.35.33-1.12.66-2.21.98-3.29.33-1.07.49-2.03.49-2.88,0-.89-.21-1.52-.62-1.87-.4-.35-.85-.53-1.34-.53-1.12,0-2.33.88-3.64,2.64-1.31,1.75-3,4.22-5.08,7.4-.71,1.08-1.3,2.16-1.79,3.26-.49,1.1-.95,2.09-1.39,2.99-.36,0-.8-.04-1.34-.13-.54-.09-1.02-.23-1.44-.43-.43-.2-.64-.45-.64-.77,0-.31.21-1.06.62-2.25.42-1.19.9-2.57,1.45-4.16.55-1.59,1.03-3.2,1.44-4.83.41-1.63.62-3.03.61-4.19,0-.76-.13-1.37-.38-1.84s-.68-.7-1.31-.7c-.98,0-2.16.61-3.54,1.8-1.38,1.19-2.8,2.75-4.26,4.68-1.46,1.93-2.85,4.05-4.15,6.36-1.3,2.31-2.35,4.6-3.14,6.89-.4,0-.89-.06-1.48-.19-.58-.13-1.08-.31-1.51-.53-.43-.22-.64-.44-.64-.67,0-.27.23-1.06.69-2.38.46-1.32.99-2.91,1.58-4.77.59-1.86,1.12-3.75,1.57-5.67.46-1.92.68-3.62.67-5.1.27-.31.69-.63,1.27-.95.58-.32,1.18-.48,1.81-.48.62,0,1.08.15,1.38.46.29.31.44.73.44,1.27,0,.58-.16,1.58-.48,2.99-.33,1.41-.73,2.96-1.21,4.66.88-1.43,1.89-2.9,3.02-4.41,1.13-1.5,2.32-2.88,3.56-4.14,1.24-1.26,2.5-2.28,3.77-3.07,1.27-.79,2.51-1.19,3.71-1.2,1.38,0,2.34.49,2.86,1.49.52,1,.78,2.2.79,3.58,0,1.12-.11,2.29-.35,3.52-.24,1.23-.51,2.37-.82,3.42-.31,1.05-.59,1.89-.85,2.52.93-1.7,1.96-3.35,3.08-4.94,1.13-1.59,2.36-2.9,3.7-3.91,1.33-1.01,2.76-1.53,4.28-1.53,1.43,0,2.43.41,2.99,1.25.56.85.85,1.85.86,3.01,0,1.16-.19,2.44-.58,3.82-.39,1.39-.8,2.73-1.22,4.03-.42,1.3-.62,2.42-.62,3.35,0,.58.15,1.1.45,1.57.29.47.82.7,1.58.69,1.25,0,2.42-.58,3.51-1.73,1.09-1.15,2.09-2.54,3.02-4.17.93-1.64,1.72-3.21,2.38-4.74l.81.93c-.7,1.88-1.61,3.75-2.71,5.61-1.11,1.86-2.4,3.4-3.89,4.61-1.49,1.22-3.13,1.83-4.91,1.84Z"/>
    </g>
    <g>
      <path class="cls-8" d="M168.65,102.26c-.28-.04-.54-.07-.79-.09-.25-.02-.51-.03-.78-.03h-1.6c-.12.02-.24.04-.36.04s-.23.02-.34.03c-.11,0-.23.01-.36.01h-.37s-.07-.04-.1-.04-.06-.02-.1-.03c-.04-.01-.07-.03-.1-.04-.03-.02-.06-.04-.1-.06-.02-.04-.04-.08-.07-.12-.03-.04-.05-.08-.06-.13s-.02-.09-.02-.13v-.15l.15-.3c.3-.1.62-.16.97-.17.35,0,.69-.03,1.02-.06s.67-.04,1.02-.01c.35.02.69.02,1.03,0l.42.06.03-1.17-1.17-.03-.69.06s-.08-.04-.12-.04c-.04,0-.08-.02-.13-.03-.05,0-.09-.03-.12-.06-.03-.03-.06-.05-.1-.07-.02-.04-.04-.08-.07-.12-.03-.04-.05-.08-.06-.13s-.01-.09-.01-.13v-.15l.15-.3s.08-.04.12-.08c.04-.03.08-.05.13-.06s.1-.01.15-.01h.16l.39.03c.08-.04.17-.06.27-.06h.9l.21.03.03-.96h-1.31l-1.64.03c-.08.12-.15.25-.21.39s-.12.27-.18.4c-.06.13-.12.26-.18.39-.06.13-.14.25-.24.37-.04.02-.08.04-.12.08-.04.03-.08.05-.13.06s-.09.01-.13.01h-.15l-.3-.15s-.04-.08-.07-.12-.05-.08-.06-.13c0-.05-.01-.1-.01-.15v-.16c.12-.26.24-.51.36-.76.12-.25.25-.5.4-.75.15-.25.3-.49.46-.73.16-.24.32-.49.48-.75.04-.02.08-.04.12-.07.04-.03.08-.05.13-.06s.09-.02.13-.02h.15l.3.15s.04.08.07.12c.03.04.05.08.06.13s.02.1.02.16v.18l-.09.24h.81l1.37-.03.09-1.29h-.39c-.26.02-.53.03-.81.03h-.82c-.27,0-.54.01-.81.03-.27.02-.53.04-.79.06l-.3-.15s-.04-.08-.07-.12c-.03-.04-.05-.08-.06-.13s-.01-.1-.01-.15v-.16c.04-.42.1-.84.18-1.26.08-.42.15-.84.21-1.25.06-.42.12-.84.19-1.25.07-.42.18-.83.34-1.23.04-.02.08-.04.12-.08.04-.03.08-.05.13-.06s.09-.01.13-.01h.15l.24.06c.16-.04.32-.06.49-.08.17,0,.34-.01.52-.01h1.08c.4.04.79.08,1.18.12.39.04.78.08,1.17.12s.78.07,1.18.09c.4.02.78.09,1.14.21.12.36.18.74.18,1.15v1.23c0,.41.02.81.07,1.2s.08.78.1,1.18l-.15.3h-.06l-.06.15s-.08.04-.12.08c-.04.03-.08.05-.12.06-.04,0-.08.01-.13.01s-.09,0-.13.03c-.22-.06-.44-.09-.67-.1-.23,0-.46-.02-.7-.03-.24,0-.47-.01-.7-.01s-.46,0-.7-.03l-.09,1.34c.32-.02.63-.02.93,0,.3.02.6.04.91.04.31.01.62.01.93,0,.31,0,.59.05.85.19.02.04.04.08.07.12s.05.08.06.13c0,.05.01.09.01.13v.15l-.15.3s-.08.04-.12.08c-.04.03-.08.05-.13.06-.05,0-.1.02-.15.03-.05,0-.1.01-.16.01-.24-.02-.49-.03-.76-.01-.27,0-.53,0-.78-.03s-.5-.04-.76-.04h-.78l-.03.96c.22.02.43.04.64.04.21.01.42.02.64.03l.66.03c.22.01.42.07.6.17.02.04.04.08.07.12.03.04.05.08.06.13,0,.05.01.09.01.13v.15l-.15.3c-.06.04-.12.07-.18.1-.06.03-.13.05-.21.06s-.15.01-.22.01h-.22l-1.7-.12-.03,1.2h2.36l1.52-.06.36.18s.04.08.07.12.05.08.06.13.02.09.02.13v.15l-.15.3c-.12.1-.26.15-.43.15s-.33,0-.49.02c-.16,0-.32.01-.48.01s-.32,0-.48.03h-2.99ZM171.82,94.19v-.06l-.12-.81c-.36-.06-.73-.09-1.11-.09s-.75-.02-1.11-.07c-.36-.05-.73-.07-1.12-.06-.39.01-.77.02-1.15.02l-1.14.03-.39-.03-.09.03-.15,1.05h.06c.34-.02.69-.03,1.05-.03s.72,0,1.08-.01c.36-.01.72-.03,1.08-.04.36-.02.72-.02,1.08,0l2.03.09ZM171.67,92.13v-.54l-.03-.57c-.44-.02-.87-.05-1.3-.09-.43-.04-.85-.08-1.27-.12s-.85-.07-1.3-.1-.89-.04-1.33-.01l-.45.06c0,.1-.02.19-.06.28-.04.09-.06.19-.06.3s0,.21-.03.31-.03.2-.03.3l1.37.03,2.03-.03c.2.02.4.04.6.08.2.03.4.04.61.04s.42,0,.63.02c.21,0,.41.02.61.04Z"/>
      <path class="cls-8" d="M180.31,95.72l-.36-.18c-.14-.22-.29-.43-.45-.64-.16-.21-.29-.43-.39-.66-.1-.23-.21-.45-.34-.67-.13-.22-.21-.46-.25-.72l.15-.3s.08-.04.12-.07c.04-.03.08-.05.13-.06.05,0,.09-.01.13-.01h.15l.3.15c.14.16.25.33.34.52.09.19.17.37.25.55.08.18.18.36.3.54.12.18.25.35.39.51l.06.03s.04.08.07.12.05.08.06.13c0,.05.01.1.01.15v.16l-.15.3s-.08.04-.12.08c-.04.03-.08.05-.13.06s-.09.01-.13.01h-.15ZM180.43,101.04l-.3-.15s-.04-.08-.07-.1c-.03-.03-.04-.07-.04-.12s0-.09-.03-.13-.03-.08-.03-.12c.2-.82.4-1.64.6-2.47.2-.83.4-1.65.6-2.48s.4-1.65.6-2.48c.2-.83.42-1.64.66-2.44.04-.02.08-.04.12-.08.04-.03.08-.05.13-.06s.09-.01.13-.01h.15l.3.15s.04.08.07.12c.03.04.05.08.06.13.01.05.02.09.02.13v.15c-.12.46-.23.92-.34,1.37-.11.46-.22.92-.33,1.38-.11.46-.22.92-.33,1.38-.11.46-.22.93-.34,1.4l.57.78c.1.06.19.12.27.19.08.07.16.15.25.24.09.09.17.17.25.25.08.08.16.16.24.24l.39.48c.04.06.08.12.12.19.04.07.08.13.13.19.05.06.08.13.09.21,0,.08.02.16.02.24l-.15.3s-.08.04-.12.07c-.04.03-.08.05-.13.06-.05.01-.1.02-.13.02h-.15l-.3-.15c-.12-.16-.24-.31-.36-.46l-.36-.45c-.12-.15-.26-.29-.42-.43-.16-.14-.31-.27-.45-.39l-.12-.09c-.04.24-.09.47-.15.7s-.12.46-.19.69-.12.46-.15.7-.1.47-.22.69c-.04.02-.08.04-.12.07-.04.03-.08.05-.13.06-.05,0-.09.01-.13.01h-.15ZM183.18,96.02l-.3-.15s-.04-.07-.07-.1c-.03-.03-.04-.07-.04-.12s-.01-.09-.03-.13-.03-.08-.03-.12c.06-.26.15-.5.28-.72.13-.22.25-.45.36-.69.11-.24.21-.48.3-.72.09-.24.22-.46.4-.66.04-.02.08-.04.12-.07.04-.03.08-.05.13-.06s.09-.02.13-.02h.15l.3.15s.04.08.07.12c.03.04.05.08.06.13,0,.05.02.09.02.13v.15c-.14.22-.25.44-.34.67-.09.23-.19.46-.3.69-.11.23-.22.46-.34.69-.12.23-.23.45-.33.67-.04.02-.08.04-.12.08-.04.03-.08.05-.13.06s-.09.01-.13.01h-.15ZM188.65,101.91l-.3-.15c-.18-.76-.27-1.54-.27-2.35s-.02-1.62-.06-2.44c-.04-.82-.08-1.62-.12-2.42-.04-.8-.09-1.59-.15-2.39-.28,0-.55-.01-.81-.04-.26-.03-.52-.05-.78-.06-.26,0-.52-.03-.79-.06-.27-.03-.52-.09-.76-.19-.02-.04-.04-.08-.07-.12-.03-.04-.05-.08-.06-.13s-.01-.09-.01-.13v-.15l.15-.3s.08-.07.13-.1.1-.05.16-.06c.06,0,.12-.02.19-.02h.19c.46.08.93.13,1.42.15.49.02.97.04,1.45.07.48.03.95.08,1.42.15.47.07.93.16,1.39.28.02.04.04.08.07.12.03.04.05.08.06.13,0,.05.01.09.01.13v.15l-.15.3s-.08.04-.13.07c-.05.03-.1.05-.16.06-.06.01-.12.02-.18.02h-.18l-1.4-.18v.57c.1.72.16,1.43.19,2.15.03.72.05,1.44.07,2.17.02.73.04,1.45.06,2.17.02.72.05,1.43.09,2.15l-.15.3s-.08.04-.12.08c-.04.03-.08.05-.13.06s-.09.01-.13.01h-.15Z"/>
      <path class="cls-8" d="M199.03,97.69s-.07-.03-.1-.04c-.03,0-.06-.02-.1-.03s-.07-.03-.1-.04c-.03-.02-.06-.04-.1-.06-.14-.22-.22-.46-.24-.72s-.03-.53-.03-.81v-1.61l.12-2.48-.03-.12s.04-.07.04-.1c0-.03.02-.06.03-.1,0-.04.02-.07.04-.1s.04-.06.06-.1c.04-.02.08-.04.12-.08.04-.03.08-.05.13-.06.05,0,.09-.01.13-.01h.15l.3.15c.04.06.07.13.1.21.03.08.05.15.06.22,0,.07.02.15.02.24v.25c-.04.34-.06.68-.07,1.02-.01.34-.02.68-.03,1.03-.01.35-.02.7-.02,1.05v1.06h.15c.1-.06.21-.1.33-.13.12-.03.24-.06.36-.09.12-.03.23-.06.34-.1.11-.04.23-.06.37-.06l.3.18s.04.08.07.12.05.08.06.13c.01.05.02.09.02.13v.15l-.15.3c-.18.1-.36.17-.55.22-.19.05-.38.1-.57.16-.19.06-.39.11-.6.15-.21.04-.41.07-.61.09ZM203.99,102.17l-.3-.15c-.06-.08-.1-.16-.13-.25-.03-.09-.04-.18-.04-.28v-.6c.02-.8.04-1.6.04-2.41,0-.81.03-1.62.04-2.44.02-.82.05-1.62.09-2.42s.15-1.58.33-2.36c.04-.02.08-.04.12-.07.04-.03.08-.05.13-.06.05,0,.09-.01.13-.01h.15l.3.15c.04.06.07.12.1.18.03.06.04.13.04.21v.45c-.08.82-.14,1.64-.18,2.47s-.07,1.66-.09,2.5c-.02.84-.02,1.67-.01,2.51s-.05,1.65-.19,2.45c-.04.02-.08.04-.12.07-.04.03-.08.05-.13.06-.05,0-.09.01-.13.01h-.15Z"/>
      <path class="cls-8" d="M215.59,100.26c-.18-.02-.36-.05-.54-.1-.18-.05-.34-.13-.49-.24-.15-.11-.3-.22-.45-.34-.15-.12-.29-.24-.43-.36-.14-.16-.26-.33-.36-.51-.1-.18-.17-.37-.21-.57-.04-.2-.07-.4-.09-.61-.02-.21-.02-.42,0-.64.06-.34.15-.68.27-1.02.12-.34.28-.65.48-.93.2-.28.4-.56.61-.84.21-.28.44-.55.7-.81.26-.2.52-.39.78-.58.26-.19.55-.31.87-.37.32-.06.65-.09.99-.1.34,0,.68-.01,1.02-.01.32.04.62.11.9.21.28.1.55.21.81.33.26.12.51.27.75.46s.47.39.69.61c.26.32.51.64.76.97.25.33.45.69.6,1.09s.25.8.3,1.21c.05.41.08.82.08,1.24-.04.14-.08.29-.1.45-.03.16-.07.31-.11.45-.04.14-.07.29-.1.45-.03.16-.08.3-.16.42-.04.02-.08.04-.12.08-.04.03-.08.05-.13.06s-.09.01-.13.01h-.15l-.3-.15s-.04-.08-.07-.12c-.03-.04-.05-.08-.06-.13l-.03-.15s-.02-.1-.02-.16c.04-.14.08-.28.11-.42.03-.14.07-.28.12-.42s.08-.28.1-.43.02-.3,0-.46c-.02-.32-.06-.64-.13-.96-.07-.32-.18-.62-.33-.9-.15-.28-.33-.55-.54-.81s-.42-.51-.64-.75c-.14-.12-.28-.23-.43-.34s-.3-.19-.46-.25c-.16-.06-.32-.13-.48-.21-.16-.08-.33-.13-.51-.15.02.6-.03,1.18-.13,1.73-.11.56-.23,1.12-.37,1.69-.14.57-.35,1.11-.63,1.61-.28.51-.63.97-1.05,1.39-.08.06-.17.12-.25.18-.09.06-.18.1-.27.12-.09.02-.19.04-.3.06-.11.02-.21.03-.31.03ZM215.92,99.01c.4-.34.7-.74.9-1.21.2-.47.37-.95.51-1.43.14-.49.24-.98.31-1.46s.09-.99.08-1.51h-.21c-.2,0-.39.03-.57.08-.18.05-.34.13-.49.24-.15.11-.3.23-.45.36-.15.13-.29.26-.43.4-.2.22-.38.45-.55.69-.17.24-.32.49-.45.76-.13.27-.23.54-.31.82-.08.28-.1.58-.06.9.02.08.04.16.06.25.02.09.05.17.09.25.04.08.08.16.13.22.05.07.11.13.19.19.08.06.16.12.25.19.09.07.18.13.27.18.09.05.18.09.27.12.09.03.19.04.31.04l.15-.09Z"/>
      <path class="cls-8" d="M235.12,102.29l-.3-.15c-.06-.08-.11-.16-.13-.24-.03-.08-.04-.16-.04-.25v-.55c.02-.2.04-.4.07-.61.03-.21.05-.42.08-.63.02-.21.03-.42.03-.63v-.64l-.03-1.46c.02-.36.04-.73.06-1.12s.04-.77.04-1.15.01-.76.01-1.14,0-.76.03-1.14c-.24.02-.47.02-.7,0-.23-.02-.45-.04-.67-.04s-.44-.02-.67-.03c-.23,0-.46-.01-.7-.01l-.93.03c-.06-.02-.12-.03-.18-.03s-.12,0-.18-.01c-.06,0-.11-.03-.16-.04-.05-.02-.1-.05-.16-.09-.02-.04-.04-.08-.08-.12-.03-.04-.05-.08-.06-.13s-.01-.09-.01-.13v-.15l.15-.3c.06-.04.12-.08.18-.1.06-.03.12-.05.18-.06s.12-.02.19-.02h.22l.78.03.75-.03c.62.06,1.25.09,1.9.09s1.29,0,1.93.03c.64.02,1.27.04,1.91.07.64.03,1.26.12,1.85.25.02.04.04.08.07.12.03.04.05.08.06.13,0,.05.01.09.01.13v.15l-.15.3c-.06.04-.12.08-.19.1-.07.03-.14.05-.22.06-.08,0-.16.01-.24.01h-.24c-.28-.04-.56-.08-.84-.1-.28-.03-.57-.04-.87-.04s-.59,0-.87-.01c-.28,0-.57-.02-.87-.02l-.15,5.95.03,1.08c-.02.22-.04.43-.08.64-.03.21-.05.42-.07.63-.02.21-.03.42-.02.64,0,.22-.05.42-.19.6-.04.02-.08.04-.12.08-.04.03-.08.05-.13.06s-.09.01-.13.01h-.15ZM239.39,97.54c-.26-.08-.51-.2-.75-.37-.24-.17-.48-.32-.73-.45-.25-.13-.49-.27-.73-.43s-.49-.3-.75-.42c-.02-.04-.04-.08-.07-.12-.03-.04-.05-.08-.06-.13,0-.05-.01-.09-.01-.13v-.15l.15-.3s.08-.07.13-.09c.05-.02.1-.04.15-.06.05-.02.1-.03.16-.03h.18c.24.14.47.27.7.4s.46.26.69.39c.23.13.45.27.67.42.22.15.45.29.69.43.02.04.04.08.07.12.03.04.05.08.08.13.02.05.03.1.03.15v.16l-.15.3s-.07.04-.1.06c-.03.02-.06.04-.1.06-.04.02-.08.03-.12.03s-.08,0-.12.03Z"/>
      <path class="cls-8" d="M249.41,102.56c-.06-.02-.12-.04-.17-.08-.05-.03-.1-.06-.15-.1s-.09-.07-.13-.1c-.04-.03-.09-.06-.15-.1-.12-.14-.23-.27-.34-.4-.11-.13-.22-.26-.33-.4s-.22-.28-.34-.42-.26-.25-.42-.33c-.02-.04-.04-.08-.08-.12s-.05-.08-.06-.13-.01-.09-.01-.13v-.15l.15-.3s.08-.04.13-.08.1-.05.15-.06.1-.02.17-.02h.18l.3.15,1.32,1.58.36.27s.04.08.06.1c.02.03.04.06.04.1s.02.08.02.13v.13l-.15.3s-.08.04-.12.07c-.04.03-.08.05-.13.06s-.09.02-.13.02h-.15Z"/>
      <path class="cls-8" d="M265.67,102.95l-.3-.15c-.06-.08-.11-.17-.15-.27-.04-.1-.06-.2-.06-.31v-.64l.06-1.85-.03-.66.06-1.82h-1.08l-.63.15s-.08-.03-.1-.04c-.03,0-.07-.02-.1-.03-.04,0-.08-.03-.11-.04-.03-.02-.06-.04-.1-.06-.02-.04-.04-.08-.07-.12-.03-.04-.05-.08-.06-.13-.01-.05-.02-.09-.02-.13v-.15c.08-.22.18-.43.31-.63.13-.2.27-.39.42-.57.15-.18.29-.36.43-.55.14-.19.27-.38.39-.58l-.06-.03c-.06-.08-.13-.16-.22-.24s-.18-.16-.27-.24c-.09-.08-.18-.15-.27-.22-.09-.07-.17-.13-.25-.19l-.24-.12s-.04-.08-.07-.12c-.03-.04-.05-.08-.06-.13s-.01-.1-.01-.15v-.16c.06-.14.13-.26.21-.37.08-.11.17-.23.25-.36.09-.13.18-.25.28-.36s.21-.21.33-.31c.18-.14.35-.29.51-.45.16-.16.32-.32.48-.48.16-.16.31-.33.46-.51.15-.18.31-.33.49-.45l.36-.03.3.15s.04.08.08.12.05.08.06.13.01.09.01.13v.15l-.15.3-2.27,2.33.78.66.12.09,1.31-1.52h.06l.09-.18c.06-.04.11-.07.17-.1.05-.03.1-.05.15-.07.05-.02.11-.03.18-.03h.19l.3.15s.04.08.08.12c.03.04.05.08.06.13,0,.05.01.09.01.13v.15l-.15.3-.18.09v.06l-.15.06c-.16.2-.32.4-.49.6-.17.2-.34.4-.51.6-.17.2-.34.39-.52.58-.18.19-.34.39-.48.61-.08.06-.15.13-.21.21s-.12.15-.17.22c-.05.07-.11.14-.18.22-.07.08-.12.16-.16.24h.9c.12-.06.25-.08.39-.06.14.02.27.01.39-.02.12-.03.24-.05.37-.06.13,0,.26-.01.4-.01v-.06c-.04-.1-.08-.19-.13-.28s-.09-.18-.13-.28l-.12-.3c-.04-.1-.05-.21-.03-.33l.15-.3s.08-.04.12-.07.08-.05.13-.06.09-.02.13-.02h.15l.3.15c.14.22.26.45.36.69.1.24.19.49.28.75.09.26.2.5.33.73.13.23.2.48.22.76l-.15.3s-.08.04-.12.07c-.04.03-.08.05-.13.06-.05.01-.09.02-.13.02h-.15l-.3-.15-.3-.51h-.39l-.87.09-.09,2.54.03.48-.06,2.03.03.3-.15.3s-.08.04-.12.07-.08.05-.13.06-.09.02-.13.02h-.15ZM263.52,100.8l-.3-.15s-.04-.08-.07-.12c-.03-.04-.05-.08-.06-.13s-.01-.1-.01-.15v-.16c.06-.18.13-.35.22-.51.09-.16.17-.32.25-.49.08-.17.16-.33.24-.49.08-.16.18-.32.3-.48.04-.02.08-.04.12-.08.04-.03.08-.05.13-.06s.09-.01.13-.01h.15l.3.15s.04.08.07.12.05.08.06.13.02.1.02.15v.16c-.08.16-.16.32-.24.49-.08.17-.17.33-.25.49-.09.16-.17.32-.25.49-.08.17-.17.33-.27.49-.04.02-.08.04-.12.08-.04.03-.08.05-.13.06s-.09.01-.13.01h-.15ZM268.09,100.44l-.3-.15c-.1-.18-.21-.35-.31-.52-.11-.17-.21-.34-.31-.51-.1-.17-.19-.34-.28-.51-.09-.17-.13-.36-.13-.58l.15-.3s.08-.04.12-.08c.04-.03.08-.05.13-.06.05,0,.09-.01.13-.01h.15l.3.15.66,1.11c.06.08.11.16.15.24.04.08.08.16.12.24s.08.16.1.25c.03.09.04.18.02.28l-.15.3s-.08.04-.12.07c-.04.03-.08.05-.13.06-.05,0-.09.01-.13.01h-.15ZM268.9,102.05s-.08-.03-.1-.04c-.03-.01-.07-.02-.1-.03-.04,0-.08-.03-.1-.04-.03-.02-.07-.04-.1-.06-.02-.04-.04-.08-.08-.12-.03-.04-.05-.08-.06-.13,0-.05-.01-.09-.01-.13v-.15l.15-.3c.2-.1.42-.17.66-.21s.48-.07.72-.09c.24-.02.48-.03.72-.03s.48,0,.72-.03l.33.06v-1.46l-.09-4.96.06-1.32c-.18,0-.37,0-.57.02-.2,0-.39-.01-.57-.06-.18-.05-.36-.08-.54-.09-.18-.01-.35-.07-.51-.17-.02-.04-.05-.08-.09-.12-.04-.04-.06-.08-.07-.13s-.01-.09-.01-.13v-.15l.18-.3c.06-.04.11-.07.17-.1.05-.03.1-.05.16-.06s.12-.01.19-.01h.19c.24.08.49.12.75.13.26.01.53.02.81.02h1.61c.1-.02.2-.04.31-.04s.22-.02.33-.02h.64s.08.03.12.03.08,0,.12.03c.04.02.07.04.1.06.03.02.06.04.1.06.02.04.04.08.07.12.03.04.05.08.06.13,0,.05.01.1.01.15v.17l-.15.3s-.08.04-.12.07c-.04.03-.08.05-.13.06-.05.01-.09.02-.13.02h-.15l-.9-.03-.84.06-.06,2.96.09,4.75c.26,0,.51,0,.75.02s.48.02.73.03c.25,0,.49.03.73.04.24.02.46.09.66.21.02.04.04.08.07.12.03.04.05.08.06.13,0,.05.02.1.02.13v.15l-.15.3c-.06.02-.12.04-.17.08-.05.03-.1.05-.16.06s-.12.01-.18.01h-.18c-.24-.04-.48-.07-.73-.09-.25-.02-.5-.03-.75-.03h-1.54l-.45.03-.69-.06c-.16.02-.32.03-.48.03s-.32,0-.48.03c-.16.02-.32.05-.48.09-.16.04-.32.06-.48.06Z"/>
      <path class="cls-8" d="M283.91,93.42l-.3-.15c-.06-.08-.1-.17-.13-.25-.03-.09-.05-.18-.06-.28s-.01-.2-.01-.31v-.31l-1.58-.03-.45.06-.3-.15s-.04-.08-.08-.12c-.03-.04-.05-.08-.06-.13s-.01-.09-.01-.13v-.15l.15-.3c.12-.1.25-.17.4-.19.15-.03.3-.04.46-.04h.96l.48.03v-.45l-.06-.24s.04-.08.04-.11c0-.03.02-.06.03-.1,0-.04.02-.07.04-.1.02-.03.04-.06.06-.1.04-.02.08-.04.12-.07.04-.03.08-.05.13-.06.05,0,.09-.01.13-.01h.15l.3.15c.06.08.1.16.13.24.03.08.05.16.06.25,0,.09.01.18.01.28v.3h.33l2.39-.03.87.06c0-.08,0-.17.02-.25,0-.09.01-.18.01-.27s.02-.17.06-.25.08-.16.12-.24c.04-.02.08-.04.12-.08.04-.03.08-.05.13-.06.05,0,.09-.01.13-.01h.15l.3.15c.04.06.07.12.1.19.03.07.04.14.04.21v.46l-.03.12c.16,0,.31,0,.46.01s.31.02.48.02.33,0,.48.01.28.06.4.16c.02.04.04.08.07.12.03.04.05.08.06.13,0,.05.01.09.01.13v.15l-.15.3s-.08.04-.12.08c-.04.03-.08.05-.13.06s-.09.02-.13.03c-.04.01-.09.02-.15.02l-1.34-.06v.3c0,.1-.02.2-.04.3-.03.1-.05.19-.08.28-.02.09-.06.17-.12.25-.04.02-.08.04-.12.08-.04.03-.08.05-.13.06s-.09.01-.13.01h-.15l-.3-.15s-.04-.08-.08-.12c-.03-.04-.05-.08-.06-.13s-.02-.09-.03-.13c-.01-.04-.02-.09-.02-.15l.09-.57c-.26-.02-.51-.04-.76-.04s-.51-.01-.78-.01h-1.57l-.39.03v.51l.03.39-.15.3s-.08.04-.12.07c-.04.03-.08.05-.13.06-.05.01-.09.02-.13.02h-.15ZM291.62,98.53l-.42-.27c-.38-.36-.77-.69-1.18-1-.41-.31-.8-.65-1.17-1.03-.37-.38-.76-.73-1.18-1.05-.42-.32-.85-.61-1.29-.87v-.06h-.09l-.15.15-.72.57c-.08.06-.16.12-.24.16-.08.05-.16.1-.24.15-.08.05-.15.11-.22.18s-.13.14-.19.22l-.39.36c-.06.04-.12.09-.18.15-.06.06-.12.12-.18.18-.06.06-.11.12-.15.18-.04.06-.09.12-.15.18h-.06c-.04.1-.09.19-.16.27-.07.08-.14.16-.21.24-.07.08-.14.15-.21.22-.07.07-.14.14-.22.22l-.42.36-.18.3s-.08.04-.12.08c-.04.03-.08.05-.13.06-.05,0-.09.02-.13.02h-.15l-.3-.15s-.04-.08-.07-.12c-.03-.04-.05-.08-.06-.13,0-.05-.01-.1-.01-.15v-.16l.42-.66c.12-.08.23-.17.33-.25.1-.09.2-.19.3-.3.1-.11.19-.22.28-.33s.17-.22.25-.34l.54-.6c.18-.14.36-.29.54-.46.18-.17.36-.32.55-.46s.38-.28.58-.42.38-.3.54-.48l.42-.36c.06,0,.12-.02.18-.06.06-.04.12-.07.18-.1.06-.03.12-.04.19-.04h.19l.3.15.12.12.21.21c.08.1.18.19.3.27.12.08.23.15.34.21s.22.12.33.19c.11.07.22.14.34.22.16.16.33.32.51.49.18.17.36.33.54.49.18.16.36.32.54.48.18.16.37.31.57.45l.57.48.3.24.36.3.09.09.21.21s.04.08.08.12c.03.04.05.08.06.13,0,.05.01.1.01.15v.16l-.15.3s-.08.04-.12.08c-.04.03-.08.05-.13.06s-.09.01-.13.01h-.15ZM282.44,101.97l-.3-.15s-.04-.08-.07-.1c-.03-.03-.04-.07-.04-.12s0-.09-.03-.13c-.02-.04-.03-.08-.03-.12.06-.2.15-.39.28-.57.13-.18.25-.36.37-.54.12-.18.24-.35.37-.52.13-.17.27-.33.43-.49.04-.02.08-.05.13-.09.05-.04.1-.07.15-.09.05-.02.1-.03.16-.03h.18l.3.15s.04.08.08.12c.03.04.05.08.06.13s.01.09.01.13v.15l-.15.3c-.18.1-.32.23-.43.39l-.33.48c-.11.16-.22.32-.33.48s-.2.32-.28.48c-.04.02-.08.04-.12.07-.04.03-.08.05-.13.06s-.09.02-.13.02h-.15ZM286.06,102.59l-.3-.15c-.12-.18-.18-.38-.19-.61-.01-.23-.02-.46-.02-.69v-1.39l.03-1.41h-.99l-1.11.09s-.08-.03-.1-.04c-.03,0-.07-.02-.11-.03-.04,0-.07-.03-.1-.04-.03-.02-.06-.04-.1-.06-.02-.04-.04-.08-.07-.12-.03-.04-.05-.08-.06-.13s-.01-.09-.01-.13v-.15l.15-.3c.18-.12.38-.18.6-.18s.43,0,.64-.03c.21-.02.42-.03.64-.03h.66l.03-.9-.03-.36s.03-.07.04-.1c.01-.03.02-.06.03-.1,0-.04.02-.07.04-.1.02-.03.04-.06.06-.1.04-.02.08-.04.12-.07.04-.03.08-.05.13-.06.05,0,.1-.01.15-.01h.17l.3.15c.08.08.12.18.13.3.01.12.02.24.03.37,0,.13.01.25.01.37v.36l-.03.36h.3c.08-.02.17-.04.27-.04s.19-.02.28-.02h.58c.1.04.21.07.33.09.12.02.24.03.36.03s.23.01.34.04c.11.03.21.08.31.16.02.04.04.08.08.12.03.04.05.08.06.13,0,.05.01.09.01.13v.15l-.15.3s-.08.04-.13.08c-.05.03-.1.05-.15.06s-.1.01-.16.01h-.18c-.14-.02-.27-.04-.4-.06s-.26-.04-.39-.08c-.13-.03-.27-.04-.42-.03s-.29.01-.43.01l-.54.06-.03,3.05.03.66-.15.3s-.08.04-.12.08c-.04.03-.08.05-.13.06s-.1.01-.15.01h-.16ZM290.39,101.85s-.07-.04-.1-.04c-.03,0-.06-.02-.1-.03-.04-.01-.07-.03-.1-.04-.03-.02-.06-.04-.1-.06-.12-.18-.25-.35-.39-.52-.14-.17-.27-.34-.4-.51-.13-.17-.26-.33-.4-.49-.14-.16-.2-.36-.18-.6l.15-.3s.08-.04.12-.08c.04-.03.08-.05.13-.06s.09-.01.13-.01h.15l.3.15.33.51h.06l.27.3.6.75s.04.08.08.12c.03.04.05.08.06.13s.01.1.01.15v.17l-.15.3s-.07.04-.1.06c-.03.02-.06.04-.1.06-.04.02-.08.03-.12.03s-.08,0-.12.03Z"/>
      <path class="cls-8" d="M303.22,101.88c-.22-.04-.44-.07-.67-.09-.23-.02-.44-.07-.63-.15-.19-.08-.37-.18-.55-.3-.18-.12-.35-.26-.51-.42-.16-.18-.29-.37-.39-.57-.1-.2-.17-.41-.22-.63-.05-.22-.09-.44-.13-.67-.04-.23-.06-.46-.06-.7.02-.22.07-.42.15-.61.08-.19.18-.37.3-.54.12-.17.24-.34.37-.51.13-.17.24-.34.34-.52-.24-.38-.45-.77-.64-1.17s-.36-.8-.52-1.2c-.16-.4-.32-.8-.48-1.2-.16-.4-.28-.82-.36-1.25l.15-.3s.08-.04.12-.08c.04-.03.08-.05.13-.06s.09-.01.13-.01h.15l.3.15c.18.34.33.69.46,1.06.13.37.27.73.42,1.09.15.36.3.71.46,1.06s.33.7.51,1.06l.12.03c.3-.22.61-.42.94-.6.33-.18.67-.33,1.02-.46.35-.13.7-.25,1.05-.37s.72-.16,1.12-.12l.3.15s.04.08.08.12c.03.04.05.08.06.13s.01.09.01.13v.15l-.15.3c-.36.08-.72.17-1.09.28-.37.11-.73.23-1.08.37s-.69.31-1.02.52c-.33.21-.65.42-.97.64l-.03.06c-.12.1-.23.21-.33.34-.1.13-.2.26-.3.39-.1.13-.19.26-.27.39-.08.13-.16.26-.24.4l-.06.48c.02.14.04.28.06.42.02.14.05.27.11.4.05.13.1.26.16.39.06.13.15.24.27.34.18.16.38.27.6.34.22.07.46.11.72.12s.51.01.76.01h.73c.18-.08.37-.11.57-.1s.39,0,.58-.04c.19-.04.36-.11.52-.22s.35-.15.57-.13l.3.15s.04.08.07.12c.03.04.05.08.06.13s.02.1.02.15v.16l-.15.3c-.28.2-.58.34-.9.42-.32.08-.65.13-.99.15-.34.02-.68.04-1.02.08-.34.03-.69.03-1.05.01Z"/>
      <path class="cls-8" d="M320.06,101.88c-.22-.04-.44-.07-.67-.09-.23-.02-.44-.07-.63-.15s-.37-.18-.55-.3c-.18-.12-.35-.26-.51-.42-.16-.18-.29-.37-.39-.57s-.17-.41-.22-.63c-.05-.22-.09-.44-.13-.67-.04-.23-.06-.46-.06-.7.02-.22.07-.42.15-.61s.18-.37.3-.54c.12-.17.24-.34.37-.51.13-.17.24-.34.34-.52-.24-.38-.45-.77-.64-1.17-.19-.4-.36-.8-.52-1.2s-.32-.8-.48-1.2c-.16-.4-.28-.82-.36-1.25l.15-.3s.08-.04.12-.08c.04-.03.08-.05.13-.06s.09-.01.13-.01h.15l.3.15c.18.34.33.69.46,1.06.13.37.27.73.42,1.09.15.36.3.71.46,1.06s.33.7.51,1.06l.12.03c.3-.22.61-.42.94-.6.33-.18.67-.33,1.02-.46.35-.13.7-.25,1.05-.37s.72-.16,1.12-.12l.3.15s.04.08.07.12c.03.04.05.08.06.13s.02.09.02.13v.15l-.15.3c-.36.08-.72.17-1.09.28-.37.11-.73.23-1.08.37s-.69.31-1.02.52c-.33.21-.65.42-.97.64l-.03.06c-.12.1-.23.21-.33.34-.1.13-.2.26-.3.39-.1.13-.19.26-.27.39-.08.13-.16.26-.24.4l-.06.48c.02.14.04.28.06.42.02.14.05.27.1.4.05.13.1.26.16.39.06.13.15.24.27.34.18.16.38.27.6.34.22.07.46.11.72.12.26,0,.51.01.76.01h.73c.18-.08.37-.11.57-.1s.39,0,.58-.04c.19-.04.36-.11.52-.22.16-.11.35-.15.57-.13l.3.15s.04.08.08.12c.03.04.05.08.06.13s.01.1.01.15v.16l-.15.3c-.28.2-.58.34-.9.42-.32.08-.65.13-.99.15-.34.02-.68.04-1.02.08-.34.03-.69.03-1.05.01Z"/>
      <path class="cls-8" d="M337.01,101.94c-.26-.04-.49-.09-.7-.16-.21-.07-.41-.17-.61-.28-.2-.12-.39-.25-.58-.39-.19-.14-.37-.3-.55-.48-.2-.2-.35-.41-.46-.64-.11-.23-.19-.47-.25-.72s-.1-.5-.13-.76c-.03-.26-.05-.53-.07-.81h-.9l-.57.06-.18-.03-.12.03s-.07-.03-.1-.04c-.03,0-.06-.02-.1-.03s-.08-.02-.1-.04c-.03-.02-.07-.04-.1-.06-.02-.04-.04-.08-.08-.12-.03-.04-.05-.08-.06-.13s-.01-.09-.01-.13v-.15l.15-.3c.06-.04.12-.08.18-.1.06-.03.12-.05.19-.06.07,0,.13-.01.19-.01h.21l.3.03c.08-.02.16-.04.25-.04.09,0,.18-.01.27-.01h.55v-1.38c0-.22,0-.44.03-.66.02-.22.03-.44.03-.66h-1.25l-.3.03-.3-.15s-.04-.08-.08-.12c-.03-.04-.05-.08-.06-.13s-.01-.09-.01-.13v-.15l.15-.3c.12-.12.26-.18.42-.19.16,0,.32-.01.49-.01h1c.04-.22.07-.43.09-.64.02-.21.05-.42.09-.64.04-.22.07-.44.08-.66,0-.22.07-.42.19-.6.04-.02.08-.04.12-.07.04-.03.08-.05.13-.06.05,0,.09-.01.13-.01h.15l.3.15c.04.06.07.12.1.17.03.05.04.1.04.16v.39c-.02.16-.04.32-.08.48-.03.16-.06.32-.09.48-.03.16-.04.32-.04.49s-.02.33-.06.49c.2.04.4.07.61.09.21.02.42.04.63.06.21.02.42.04.63.06.21.02.4.09.58.21.02.04.04.08.07.12.03.04.05.08.06.13,0,.05.01.09.01.13v.15l-.15.3s-.08.04-.13.08-.1.05-.15.06-.1.01-.15.01h-.16c-.18-.02-.34-.04-.49-.07s-.31-.04-.48-.04-.33-.02-.48-.06-.3-.06-.46-.06l-.06,2.63h1.36c.23,0,.46,0,.7-.02.24,0,.45.04.63.17.02.04.04.08.08.12.03.04.05.08.06.13s.01.1.01.15v.16l-.15.3c-.18.12-.38.17-.61.17-.23,0-.46-.02-.69-.02h-1.33v.54c.02.12.04.24.06.36.02.12.04.23.08.34.03.11.07.22.12.33.05.11.1.21.17.31l.06.03c.06.12.14.22.24.3.1.08.2.15.3.22.1.07.2.14.31.21s.21.13.31.19c.1.02.2.05.31.09.11.04.21.06.31.07s.21.01.33.01h.33c.14-.04.27-.08.4-.12.13-.04.25-.08.37-.12s.23-.1.34-.19.22-.17.34-.25c.12-.12.21-.25.28-.4.07-.15.11-.31.13-.49.02-.18.04-.35.04-.52,0-.17.07-.32.17-.46.04-.02.08-.04.12-.07s.08-.05.13-.06.1-.02.15-.02h.16l.3.15s.04.08.08.12c.03.04.05.08.06.13,0,.05.01.09.01.13v.15c-.02.2-.05.39-.09.58-.04.19-.07.38-.1.57-.03.19-.1.36-.22.52-.12.16-.24.32-.36.48l-.21.18-.24.12v.06c-.18.14-.37.25-.58.33-.21.08-.42.15-.64.22-.22.07-.45.11-.69.12-.24,0-.48.01-.72.01Z"/>
      <path class="cls-8" d="M349.33,101.28l-.3-.15c-.18-.3-.27-.64-.28-1.01-.01-.37-.02-.74-.02-1.1l.03-.03v-2.66c.06-.78.11-1.56.15-2.36s.15-1.58.33-2.35c.08-.06.16-.1.25-.13.09-.03.19-.04.3-.02l.3.15c.06.08.1.17.13.25.03.09.03.19.01.31-.06.69-.12,1.38-.16,2.06-.05.69-.1,1.38-.13,2.08v2.66l-.03.75h.09c.2-.06.38-.15.55-.27.17-.12.36-.17.58-.15l.3.15c.06.08.1.16.13.25.03.09.03.19.01.3l-.15.3c-.34.2-.68.38-1.02.55-.34.17-.7.3-1.09.4ZM353.82,100.53c-.08-.02-.15-.04-.22-.08-.07-.03-.13-.06-.19-.1-.06-.08-.1-.17-.13-.26-.03-.09-.04-.19-.01-.29l.15-.3.3-.15h2.72c.26-.02.52-.04.78-.04.26,0,.52-.04.75-.08l.3.15c.06.08.1.17.13.25.03.09.04.18.01.28l-.15.31h-.06v.06c-.26.14-.55.21-.86.21s-.62,0-.92.03h-2.6ZM357.4,93.94c-.35-.08-.69-.17-1.02-.27s-.66-.18-1-.24h-1.64l-.3-.15c-.06-.08-.11-.16-.13-.25-.03-.09-.04-.18-.01-.28l.15-.3c.06-.04.12-.08.19-.11.07-.03.14-.06.22-.08h1.52c.44.07.87.16,1.3.27.43.11.85.24,1.26.4.06.08.1.16.13.25.03.09.04.19.02.31l-.15.3c-.08.06-.17.1-.25.13-.09.03-.18.04-.28.01Z"/>
    </g>
  </g>
</svg>